<svg width="329" height="76" viewBox="0 0 329 76" fill="none" xmlns="http://www.w3.org/2000/svg">
<path d="M43.4826 50.7451H0V7.24609H43.4826V50.7451Z" fill="#ED1C24"/>
<path d="M10.6029 28.044H15.002C16.2659 28.044 17.3001 27.1248 17.3001 25.8609V24.5149C17.3001 24.493 17.3001 24.4711 17.3001 24.4492C17.5408 24.4492 17.7761 24.4492 18.0059 24.4492V32.6237C17.7761 32.6237 17.5463 32.6237 17.3001 32.6237C17.3001 32.4815 17.3001 32.3447 17.3001 32.2134V31.2121C17.3001 29.9481 16.2659 29.0782 15.002 29.0782H13.8037H12.2607H10.2581V33.7399H10.2746V37.3512C10.2746 37.8765 10.3566 37.9421 10.4059 38.1063C10.5864 38.4674 11.7683 38.6644 12.1458 38.6808C13.853 38.7628 15.6093 38.8449 17.2836 38.4346C17.8089 38.3196 18.3342 38.1391 18.8266 37.8929C20.386 37.1378 21.5187 36.1693 21.6992 34.1503H22.0768V39.5508H4.10266V39.1896C4.67718 39.1896 6.4828 39.2717 6.87675 38.5002C6.95335 38.358 6.99166 37.9804 6.99166 37.3676V20.5917C6.99166 19.957 6.94788 19.5631 6.86034 19.4099C6.81656 19.3223 6.67978 19.2348 6.44997 19.1472C5.80979 18.901 4.79208 18.7533 4.10266 18.7533V18.4414C15.8665 18.4414 27.6304 18.4414 39.3943 18.4414V24.2358V24.3507H38.9511C38.9511 24.3179 38.9456 24.285 38.9347 24.2522C38.6885 22.4794 38.5243 21.2812 37.2768 20.3127C36.2427 19.5248 34.2565 19.2621 32.7135 19.2621C32.2977 19.2621 32.0678 19.284 32.0241 19.3278C31.942 19.3935 31.8763 19.4263 31.8763 19.9187V37.3676C31.8763 38.0023 31.9201 38.4072 32.0077 38.5823C32.0514 38.6589 32.1937 38.7464 32.4344 38.8449C33.1403 39.124 34.4699 39.1896 35.2414 39.1896V39.5508H25.212V39.1896C25.967 39.1896 27.2802 39.124 27.9861 38.8449C28.2268 38.7464 28.3855 38.6315 28.4621 38.5002C28.5387 38.358 28.577 37.9804 28.577 37.3676V19.9516C28.577 19.3935 28.5277 19.3278 28.4128 19.295C28.3472 19.2731 28.1283 19.2621 27.7562 19.2621C26.3938 19.2621 24.539 19.5248 23.5705 20.2963C22.4543 21.1827 22.0767 22.8734 21.8798 24.2522H21.453C21.3217 23.4151 21.256 22.7092 21.1575 22.1019C20.7964 20.0008 19.4668 19.7382 17.4314 19.4427C16.1675 19.2457 14.6901 19.2457 13.262 19.2457C12.3592 19.2621 11.4564 19.3278 10.767 19.5576C10.57 19.6397 10.4551 19.771 10.3895 19.9023C10.3074 20.05 10.2746 20.2142 10.2746 20.838V23.3166H10.2581V28.044" fill="white"/>
<path d="M275.948 47.5303C276.528 47.5303 276.982 47.6944 277.311 48.0227C277.628 48.351 277.787 48.7669 277.787 49.2702C277.787 49.7627 277.628 50.1676 277.311 50.4849C276.982 50.8023 276.528 50.961 275.948 50.961C275.39 50.961 274.947 50.8023 274.619 50.4849C274.301 50.1676 274.143 49.7627 274.143 49.2702C274.143 48.7669 274.301 48.351 274.619 48.0227C274.936 47.6944 275.379 47.5303 275.948 47.5303Z" fill="#1A1A1A"/>
<path d="M286.553 48.581C287.33 48.581 287.975 48.3566 288.49 47.908C289.015 47.4484 289.294 46.8848 289.327 46.2173H292.265C292.232 47.0818 291.964 47.8916 291.461 48.6466C290.957 49.3908 290.268 49.9817 289.392 50.4194C288.528 50.8572 287.592 51.076 286.585 51.076C284.648 51.076 283.105 50.4468 281.956 49.1883C280.818 47.9299 280.249 46.1899 280.249 43.9684V43.6401C280.249 41.5281 280.818 39.8319 281.956 38.5516C283.084 37.2822 284.627 36.6475 286.585 36.6475C288.238 36.6475 289.584 37.129 290.623 38.092C291.663 39.055 292.21 40.3244 292.265 41.9002H289.327C289.294 41.1013 289.02 40.4447 288.506 39.9304C287.992 39.4161 287.34 39.1589 286.553 39.1589C285.546 39.1589 284.763 39.5255 284.205 40.2587C283.658 40.9919 283.385 42.1026 283.385 43.5909V44.0998C283.385 45.6099 283.653 46.7371 284.189 47.4812C284.736 48.2144 285.524 48.581 286.553 48.581Z" fill="#1A1A1A"/>
<path fill-rule="evenodd" clip-rule="evenodd" d="M293.511 43.7386C293.511 42.3707 293.785 41.1396 294.332 40.0453C294.868 38.951 295.623 38.1139 296.597 37.5339C297.582 36.9429 298.709 36.6475 299.978 36.6475C301.85 36.6475 303.371 37.2493 304.542 38.4531C305.713 39.6678 306.347 41.2764 306.446 43.279L306.462 44.0013C306.462 45.3801 306.2 46.6057 305.674 47.6782C305.138 48.7615 304.383 49.5987 303.409 50.1896C302.424 50.7806 301.286 51.076 299.995 51.076C298.036 51.076 296.466 50.4249 295.284 49.1227C294.102 47.8095 293.511 46.0641 293.511 43.8864V43.7386ZM296.646 44.0177C296.646 45.4512 296.942 46.5729 297.533 47.3827C298.124 48.1925 298.944 48.5974 299.995 48.5974C301.056 48.5974 301.877 48.1816 302.457 47.3499C303.048 46.5291 303.344 45.3254 303.344 43.7386C303.344 42.3379 303.043 41.2217 302.441 40.39C301.839 39.5693 301.018 39.1589 299.978 39.1589C298.95 39.1589 298.14 39.5638 297.549 40.3736C296.947 41.1834 296.646 42.3981 296.646 44.0177Z" fill="#1A1A1A"/>
<path d="M311.517 36.9101L311.599 38.3546C312.584 37.2165 313.925 36.6475 315.621 36.6475C317.481 36.6475 318.756 37.3588 319.446 38.7814C320.452 37.3588 321.875 36.6475 323.714 36.6475C325.246 36.6475 326.389 37.0743 327.144 37.9278C327.888 38.7704 328.271 40.018 328.293 41.6704V50.8298H325.174V41.7689C325.174 40.8825 324.977 40.2368 324.583 39.8319C324.2 39.4161 323.56 39.2082 322.663 39.2082C321.952 39.2082 321.372 39.3997 320.923 39.7827C320.474 40.1657 320.162 40.6636 319.987 41.2764V50.8298H316.869V41.6704C316.825 40.0289 315.988 39.2082 314.357 39.2082C313.11 39.2082 312.223 39.717 311.698 40.7347V50.8298H308.563V36.9101H311.517Z" fill="#1A1A1A"/>
<path d="M132.63 15.6519C132.433 15.8325 132.187 15.9474 131.908 15.9474C131.645 15.9474 131.399 15.8325 131.202 15.6519C131.005 15.4549 130.907 15.2087 130.907 14.9297C130.907 14.6506 131.005 14.4044 131.202 14.2074C133.631 11.778 133.631 7.82207 131.202 5.37628C131.005 5.19571 130.907 4.94949 130.907 4.67044C130.907 4.39139 131.005 4.14517 131.202 3.94819C131.58 3.57066 132.236 3.57066 132.63 3.94819C135.831 7.1819 135.831 12.4182 132.63 15.6519Z" fill="#1A1A1A"/>
<path d="M135.324 18.4753C135.127 18.6559 134.88 18.7708 134.601 18.7708C134.339 18.7708 134.092 18.6559 133.895 18.4753C133.501 18.0814 133.501 17.4412 133.895 17.0472C135.816 15.1103 136.883 12.5332 136.883 9.79193C136.883 7.05067 135.816 4.48997 133.895 2.55303C133.698 2.35606 133.6 2.10984 133.6 1.8472C133.6 1.56815 133.698 1.32193 133.895 1.12495C134.273 0.747412 134.93 0.747412 135.324 1.12495C140.084 5.91805 140.084 13.6822 135.324 18.4753Z" fill="#1A1A1A"/>
<path d="M120.057 17.0466C120.451 17.4405 120.451 18.0807 120.057 18.4747C119.86 18.6552 119.614 18.7701 119.351 18.7701C119.072 18.7701 118.809 18.6552 118.629 18.4747C113.869 13.6816 113.869 5.9174 118.629 1.1243C119.006 0.746766 119.663 0.730351 120.057 1.1243C120.254 1.32128 120.352 1.5675 120.352 1.84655C120.352 2.10919 120.254 2.35541 120.057 2.55239C118.136 4.48933 117.069 7.05002 117.069 9.79128C117.069 12.5325 118.136 15.1097 120.057 17.0466Z" fill="#1A1A1A"/>
<path d="M121.32 3.94819C121.698 3.57066 122.371 3.57066 122.748 3.94819C122.929 4.14517 123.044 4.39139 123.044 4.67044C123.044 4.93308 122.929 5.19571 122.748 5.37628C120.319 7.82207 120.319 11.778 122.748 14.2238C122.929 14.4044 123.044 14.6506 123.044 14.9297C123.044 15.2087 122.929 15.4549 122.748 15.6519C122.552 15.8325 122.305 15.9474 122.043 15.9474C121.764 15.9474 121.517 15.8325 121.32 15.6519C118.12 12.4182 118.12 7.1819 121.32 3.94819Z" fill="#1A1A1A"/>
<path d="M123.736 50.2029C123.703 50.367 123.654 50.5038 123.588 50.6133C123.375 50.9908 123.046 51.0729 122.816 51.0729C122.806 51.0729 122.795 51.0729 122.784 51.0729C122.521 51.0401 122.324 50.9252 122.193 50.7446C121.963 50.4163 121.963 49.9895 121.979 49.7597C121.996 49.5463 125.312 15.8797 125.771 11.3328C125.344 10.9717 125.098 10.3972 125.098 9.78985C125.098 8.7393 125.837 7.88574 126.74 7.88574C127.659 7.88574 128.398 8.7393 128.398 9.78985C128.398 10.3479 128.184 10.8568 127.839 11.2179L127.938 12.1864C130.4 36.8085 131.664 49.3657 131.664 49.4807C131.675 49.5682 131.686 49.6503 131.697 49.7269C131.746 50.1208 131.812 50.7118 131.221 51.0072C130.925 51.1714 130.433 51.1057 130.072 50.5148L126.805 15.2888L125.509 30.6694V30.7843" fill="#1A1A1A"/>
<path d="M126.837 11.6636C127.934 11.6636 128.824 10.789 128.824 9.71019C128.824 8.63138 127.934 7.75684 126.837 7.75684C125.741 7.75684 124.851 8.63138 124.851 9.71019C124.851 10.789 125.741 11.6636 126.837 11.6636Z" fill="#1A1A1A"/>
<path d="M131.303 51.2387C126.51 51.2387 123.796 51.2387 123.161 51.2387C122.209 51.2387 121.93 50.5657 121.947 50.3195C121.958 50.1553 121.974 49.8653 121.996 49.4495L122.899 49.2197L126.264 13.8131L127.068 12.6641L130.088 44.7713L130.548 44.5907C131.139 46.8997 131.511 48.5303 131.664 49.4823C131.828 50.4344 131.708 51.0198 131.303 51.2387Z" fill="#1A1A1A"/>
<path d="M64.4586 7.24805H89.4747V27.0935H87.1438L87.0453 26.4205C86.0932 19.5919 84.5667 14.8645 82.5312 12.3695C80.9226 10.3669 78.5096 9.36555 75.358 9.36555C74.9312 9.36555 74.6686 9.36555 74.5044 9.38196C74.4716 9.56253 74.4552 9.8744 74.4552 10.3997V45.1825C74.4552 46.5449 74.5537 47.021 74.6029 47.1687C74.6686 47.2015 74.7999 47.2836 75.1118 47.3985C75.358 47.497 76.0638 47.6775 77.853 47.8417C79.2811 47.9566 81.2509 48.0223 83.6967 48.0223H84.4682V50.2054H55.0037V48.0223H55.7588C58.1718 48.0223 60.1251 47.9566 61.5368 47.8417C63.3424 47.6775 64.0482 47.497 64.2945 47.3985C64.7869 47.2179 64.869 47.0702 64.8854 47.0374C64.8854 47.0374 65.0167 46.7255 65.0167 45.1825V10.4653C65.0167 9.87441 64.9839 9.54611 64.9511 9.38196C64.7705 9.36555 64.4914 9.36555 64.0482 9.36555C60.9623 9.36555 58.5986 10.3504 57.0063 12.3038C54.9545 14.8481 53.3951 19.5591 52.3445 26.3056L52.2461 26.9621H49.9316V7.24805H64.3601H64.4094H64.4586Z" fill="#1A1A1A"/>
<path fill-rule="evenodd" clip-rule="evenodd" d="M112.85 38.2701H114.902V39.0252C114.902 42.4395 113.786 45.2792 111.603 47.4788C109.403 49.6619 106.449 50.7781 102.837 50.7781C99.7842 50.7781 96.9773 49.6127 94.4823 47.2982C91.544 44.5898 90.0667 41.0114 90.0667 36.6615C90.0667 31.9833 91.5112 28.1094 94.3838 25.1383C96.9281 22.5612 99.8335 21.248 103.034 21.248C105.989 21.248 108.5 22.1344 110.47 23.8744C113.326 26.4187 114.771 30.5716 114.771 36.2019V36.9734H98.2741C98.3397 41.0442 98.8486 44.0153 99.8171 45.8537C100.785 47.6593 102.181 48.5457 104.118 48.5457C106.268 48.5457 108.188 47.8071 109.846 46.3462C111.849 44.557 112.85 42.1112 112.85 39.0252V38.2701ZM98.2741 34.6753H107.778C107.745 30.9984 107.384 28.1422 106.711 26.1889C106.071 24.3176 105.168 23.4312 103.855 23.4312C101.803 23.4312 100.474 24.2848 99.6365 26.1068C98.7829 27.9453 98.3233 30.8342 98.2741 34.6753Z" fill="#1A1A1A"/>
<path fill-rule="evenodd" clip-rule="evenodd" d="M159.221 38.2701H161.273V39.0252C161.273 42.4395 160.157 45.2792 157.957 47.4788C155.774 49.6619 152.82 50.7781 149.208 50.7781C146.139 50.7781 143.332 49.6127 140.853 47.2982C137.915 44.5898 136.421 41.0114 136.421 36.6615C136.421 31.9833 137.882 28.1094 140.755 25.1383C143.299 22.5612 146.204 21.248 149.389 21.248C152.36 21.248 154.855 22.1344 156.841 23.8744C159.697 26.4187 161.142 30.5716 161.142 36.2019V36.9734H144.645C144.694 41.0442 145.22 44.0153 146.188 45.8537C147.14 47.6593 148.552 48.5457 150.489 48.5457C152.639 48.5457 154.56 47.8071 156.201 46.3462C158.204 44.557 159.221 42.1112 159.221 39.0252V38.2701ZM144.645 34.6753H154.149C154.1 30.9984 153.739 28.1422 153.082 26.1889C152.442 24.3176 151.539 23.4312 150.226 23.4312C148.174 23.4312 146.828 24.2848 145.991 26.1068C145.154 27.9453 144.694 30.8342 144.645 34.6753Z" fill="#1A1A1A"/>
<path d="M186.75 37.039H188.802V37.8105C188.802 41.75 187.735 44.9345 185.65 47.249C183.533 49.5963 180.627 50.7781 176.983 50.7781C174.012 50.7781 171.222 49.5799 168.694 47.2326C165.673 44.4421 164.147 40.8472 164.147 36.5302C164.147 31.934 165.69 28.093 168.743 25.1219C171.402 22.5612 174.242 21.248 177.18 21.248C179.117 21.248 180.939 21.5928 182.597 22.2658C185.223 23.3491 186.865 25.0563 187.489 27.3379C187.718 28.1751 187.833 28.8973 187.833 29.5211C187.833 31.1954 187.045 32.4757 185.502 33.3457C184.928 33.7068 184.222 33.8874 183.434 33.8874C182.466 33.8874 181.579 33.5263 180.808 32.8368C180.02 32.1146 179.626 31.1461 179.626 29.9479C179.626 28.8481 179.987 27.9288 180.709 27.2066C181.235 26.6813 181.908 26.353 182.679 26.2053C182.449 25.401 182.022 24.7772 181.366 24.3176C180.463 23.6774 179.33 23.3655 177.968 23.3655C175.867 23.3655 174.521 24.2355 173.7 26.1068C172.814 28.1422 172.354 31.458 172.354 35.9556C172.354 40.0757 172.929 43.2274 174.061 45.312C175.145 47.2654 176.507 48.2174 178.231 48.2174C180.43 48.2174 182.318 47.4952 183.828 46.0671C185.765 44.2287 186.75 41.4546 186.75 37.8105V37.039Z" fill="#1A1A1A"/>
<path fill-rule="evenodd" clip-rule="evenodd" d="M213.324 24.9249C216.394 27.7155 217.953 31.4252 217.953 35.9556C217.953 40.3056 216.427 43.966 213.406 46.8386C210.665 49.4486 207.53 50.7781 204.083 50.7781C200.554 50.7781 197.451 49.547 194.825 47.1012C191.772 44.2779 190.212 40.5189 190.212 35.9556C190.212 31.5893 191.739 27.9453 194.759 25.1219C197.5 22.5448 200.636 21.248 204.083 21.248C207.563 21.248 210.681 22.4792 213.324 24.9249ZM209.729 35.9556C209.729 31.3267 209.352 28.0602 208.58 26.2381C207.743 24.2684 206.315 23.3655 204.083 23.3655C202.047 23.3655 200.701 24.2355 199.831 26.1232C198.896 28.1587 198.42 31.458 198.42 35.9556C198.42 40.5354 198.846 43.9004 199.684 45.9358C200.455 47.8071 201.85 48.6606 204.083 48.6606C206.102 48.6606 207.464 47.7743 208.334 45.8373C209.27 43.7691 209.729 40.4369 209.729 35.9556Z" fill="#1A1A1A"/>
<path d="M268.871 48.0881V50.2056H254.163V48.0717C254.568 48.0608 254.902 48.0389 255.164 48.0061C255.591 47.9513 256.056 47.7981 256.56 47.5464C256.658 47.2181 256.674 46.7257 256.674 46.3482V30.0155C256.674 28.0786 256.51 26.5684 256.198 25.5343C255.739 24.0898 255 23.4332 253.884 23.4332C252.636 23.4332 251.619 24.0077 250.765 25.2224C249.731 26.7162 248.894 29.5231 248.319 33.5447V46.3482C248.319 47.0868 248.369 47.4315 248.401 47.5793C248.445 47.6012 248.505 47.623 248.582 47.6449C248.73 47.7106 249.107 47.8091 250.059 47.9404C250.585 48.0061 251.061 48.0225 251.553 48.0389V50.2056H237.502V48.0717C238.75 48.0389 239.734 47.924 240.44 47.6778L240.637 47.5957C240.67 47.4644 240.752 47.1197 240.752 46.3482V30.0155C240.752 28.0457 240.588 26.5356 240.276 25.5343C239.817 24.0898 239.078 23.4332 237.929 23.4332C236.32 23.4332 235.073 24.4837 234.137 26.6505C233.431 28.292 232.873 30.7049 232.463 33.7909V46.3482C232.463 47.1032 232.512 47.448 232.545 47.5957C232.6 47.6176 232.682 47.6504 232.791 47.6942C232.922 47.7598 233.316 47.8747 234.318 47.9732C234.515 47.9896 234.695 48.0061 234.876 48.0225V50.2056H219.298V48.0881H220.07C220.956 48.0881 221.842 48.0553 222.729 47.9732C223.484 47.8911 224.173 47.7598 224.781 47.5793C224.83 47.4151 224.896 47.0704 224.896 46.3482V26.8475C224.896 26.4754 224.885 26.1033 224.863 25.7313C224.846 25.4358 224.781 25.3045 224.731 25.2552C224.42 24.7956 224.272 24.7136 224.272 24.7136C224.058 24.6479 223.156 24.4509 220.135 24.4509H219.364V22.4155L232.463 21.168V24.812C233.563 22.7274 235.204 21.5619 237.354 21.3157C237.792 21.2719 238.181 21.2391 238.52 21.2172C238.859 21.1953 239.122 21.1844 239.308 21.1844C242.262 21.1844 244.56 22.038 246.12 23.7451C246.776 24.4509 247.285 25.2881 247.646 26.2073C247.843 25.682 248.057 25.206 248.287 24.7792C249.485 22.7274 251.176 21.5619 253.293 21.3157C253.654 21.3157 253.95 21.2993 254.278 21.25C254.683 21.2063 254.978 21.1844 255.164 21.1844C258.004 21.1844 260.335 22.0872 262.042 23.86C263.503 25.3866 264.242 27.2086 264.242 29.2933V46.3482C264.242 47.2346 264.324 47.53 264.357 47.5957C264.357 47.5957 264.422 47.6449 264.57 47.6942C264.718 47.7598 265.095 47.8747 266.097 47.9732C266.901 48.0553 267.574 48.0881 268.099 48.0881H268.871Z" fill="#1A1A1A"/>
<path d="M74.7244 63.6984L73.5623 63.5106V62.6152H81.3854L81.5272 65.2293H80.3933L79.869 63.6407L76.8077 63.4818V67.5688L78.9194 67.5254L79.1887 66.2546H80.0957V69.9228H79.2029L78.9194 68.6231L76.8077 68.5653V72.3346L78.9761 72.479V73.3455H73.6331V72.479L74.7244 72.3346V63.6984Z" fill="#727272"/>
<path d="M82.0813 72.4949L83.0167 72.3794V66.6893L82.1097 66.4294V65.4329L84.3064 65.1296H84.3489L84.7032 65.4184V65.7361L84.6607 66.906H84.7032C84.7693 66.7135 84.9253 66.4776 85.1709 66.1983C85.4165 65.9095 85.7237 65.6592 86.0921 65.4473C86.47 65.2259 86.8763 65.1152 87.311 65.1152C87.5187 65.1152 87.6983 65.144 87.8494 65.2019V67.3681C87.5661 67.1659 87.2212 67.0649 86.8149 67.0649C86.1252 67.0649 85.5252 67.2525 85.0151 67.628V72.365L86.6589 72.4949V73.347H82.0813V72.4949Z" fill="#727272"/>
<path d="M88.3269 69.3466C88.3269 68.4416 88.5016 67.6714 88.8512 67.036C89.2103 66.4006 89.6874 65.9239 90.2826 65.6062C90.8779 65.2789 91.525 65.1152 92.2243 65.1152C93.4148 65.1152 94.3312 65.4906 94.9737 66.2416C95.6256 66.9829 95.9516 67.9939 95.9516 69.2744C95.9516 70.1891 95.7721 70.9689 95.413 71.6139C95.0635 72.2494 94.5911 72.726 93.9958 73.0437C93.41 73.3518 92.7628 73.5058 92.0542 73.5058C90.8731 73.5058 89.9567 73.1351 89.3047 72.3938C88.6528 71.6428 88.3269 70.6271 88.3269 69.3466ZM92.1676 72.5671C93.2353 72.5671 93.769 71.5177 93.769 69.4188C93.769 68.3213 93.6415 67.4884 93.3864 66.9204C93.1313 66.3427 92.7155 66.0539 92.1392 66.0539C91.0433 66.0539 90.4952 67.1034 90.4952 69.2021C90.4952 70.2998 90.6275 71.1374 90.8921 71.7151C91.1661 72.2832 91.5912 72.5671 92.1676 72.5671Z" fill="#727272"/>
<path d="M96.8186 72.4837L97.6122 72.3536V66.6925L96.7052 66.4325V65.4361L99.0578 65.1328L99.2279 65.2483L99.4405 65.7249V66.3315C99.7523 66.0234 100.196 65.7538 100.773 65.5227C101.358 65.2821 101.864 65.1617 102.289 65.1617C102.799 65.1617 103.21 65.2484 103.522 65.4216C103.843 65.595 104.084 65.8646 104.245 66.2304C104.557 65.9416 104.968 65.6912 105.478 65.4794C105.988 65.2676 106.489 65.1617 106.98 65.1617C107.821 65.1617 108.416 65.412 108.766 65.9127C109.115 66.4133 109.29 67.2317 109.29 68.3678V72.3536L110.211 72.4837V73.3502H106.541V72.4837L107.278 72.3536V68.4255C107.278 67.6745 107.188 67.1499 107.009 66.8514C106.838 66.5433 106.508 66.3892 106.016 66.3892C105.752 66.3892 105.478 66.4518 105.194 66.577C104.92 66.6925 104.675 66.837 104.458 67.0102C104.524 67.376 104.557 67.8334 104.557 68.3822V72.3536L105.435 72.4837V73.3502H101.736V72.4837L102.516 72.3536V68.3822C102.516 67.8815 102.483 67.4916 102.417 67.2124C102.36 66.9236 102.247 66.7166 102.077 66.5914C101.907 66.4566 101.661 66.3892 101.34 66.3892C101.037 66.3892 100.735 66.4614 100.433 66.6059C100.14 66.7406 99.8751 66.9043 99.6388 67.0968V72.3536L100.475 72.4837V73.3502H96.8186V72.4837Z" fill="#727272"/>
<path d="M117.041 63.5684L115.015 63.6407L114.462 66.789H113.271L113.512 62.6152H122.654L122.824 66.789H121.704L121.151 63.6407L119.153 63.5684V72.3346L121.137 72.479V73.3455H115.227V72.479L117.041 72.3346V63.5684Z" fill="#727272"/>
<path d="M124.012 62.7912L122.935 62.6034V61.8236L125.571 61.5059H125.613L125.982 61.7802L125.996 65.0008L125.897 66.2572C126.19 65.9876 126.587 65.7372 127.087 65.5063C127.598 65.2752 128.131 65.1596 128.688 65.1596C129.284 65.1596 129.747 65.2752 130.078 65.5063C130.408 65.7276 130.64 66.0694 130.773 66.5316C130.905 66.9937 130.97 67.6099 130.97 68.3801V72.3516L131.878 72.4816V73.3481H128.151V72.4816L128.972 72.3516V68.3801C128.972 67.8794 128.939 67.4895 128.873 67.2103C128.807 66.9311 128.684 66.7241 128.505 66.5893C128.335 66.4546 128.08 66.3871 127.739 66.3871C127.446 66.3871 127.144 66.4594 126.832 66.6038C126.53 66.7385 126.261 66.9022 126.024 67.0948V72.3516L126.889 72.4816V73.3481H123.218V72.4816L124.012 72.3661V62.7912Z" fill="#727272"/>
<path d="M135.988 73.5058C134.742 73.5058 133.811 73.1351 133.196 72.3938C132.592 71.6428 132.29 70.6223 132.29 69.3322C132.29 68.4657 132.446 67.7147 132.758 67.0793C133.078 66.4439 133.528 65.9576 134.104 65.6207C134.68 65.2837 135.346 65.1152 136.102 65.1152C137.046 65.1152 137.775 65.3703 138.284 65.8806C138.795 66.3812 139.06 67.0985 139.078 68.0324C139.078 68.6679 139.04 69.1396 138.965 69.4477H134.359C134.397 70.3238 134.6 71.0074 134.968 71.4984C135.337 71.9799 135.861 72.2205 136.541 72.2205C136.91 72.2205 137.287 72.1579 137.676 72.0328C138.071 71.9076 138.383 71.7584 138.61 71.5851L138.965 72.3794C138.709 72.6586 138.294 72.9186 137.718 73.1592C137.151 73.3903 136.574 73.5058 135.988 73.5058ZM137.094 68.5813C137.113 68.3117 137.123 68.1046 137.123 67.9603C137.123 66.6797 136.702 66.0394 135.861 66.0394C135.398 66.0394 135.039 66.2272 134.784 66.6027C134.529 66.9781 134.387 67.6376 134.359 68.5813H137.094Z" fill="#727272"/>
<path d="M143.755 63.6935L142.622 63.5057V62.6104H150.176L150.36 65.0366H149.368L148.9 63.6069L145.839 63.4769V67.3617L147.81 67.3184L148.035 66.1342H148.943V69.6291H148.035L147.81 68.3871L145.839 68.3438V72.4163L149.269 72.2431L150.091 70.3945L151.154 70.6978L150.785 73.3406H142.636V72.4741L143.755 72.3297V63.6935Z" fill="#727272"/>
<path d="M151.399 69.3687C151.399 68.5407 151.559 67.8042 151.88 67.1591C152.212 66.5141 152.678 66.0134 153.284 65.6572C153.898 65.2912 154.611 65.1084 155.424 65.1084C155.801 65.1084 156.127 65.1372 156.401 65.195C156.676 65.2527 156.982 65.3298 157.323 65.4261L157.734 65.5416L157.649 68.0111H156.415L156.062 66.4225C156.005 66.1722 155.726 66.0471 155.225 66.0471C154.696 66.0471 154.281 66.283 153.977 66.7547C153.685 67.2265 153.534 67.963 153.525 68.9643C153.525 70.0234 153.704 70.837 154.063 71.4049C154.422 71.9633 154.899 72.2426 155.495 72.2426C156.212 72.2426 156.874 72.0452 157.479 71.6504L157.805 72.4015C157.559 72.671 157.181 72.9213 156.67 73.1524C156.17 73.3835 155.627 73.499 155.041 73.499C153.831 73.499 152.919 73.1187 152.305 72.3581C151.701 71.5975 151.399 70.6011 151.399 69.3687Z" fill="#727272"/>
<path d="M158.508 69.3398C158.508 68.4348 158.682 67.6645 159.031 67.0291C159.391 66.3937 159.868 65.9171 160.463 65.5994C161.059 65.2721 161.706 65.1084 162.405 65.1084C163.596 65.1084 164.512 65.4838 165.155 66.2348C165.807 66.9761 166.132 67.987 166.132 69.2675C166.132 70.1822 165.953 70.9621 165.594 71.6071C165.244 72.2426 164.772 72.7192 164.176 73.0369C163.59 73.345 162.944 73.499 162.235 73.499C161.053 73.499 160.137 73.1283 159.485 72.3869C158.834 71.636 158.508 70.6203 158.508 69.3398ZM162.348 72.5603C163.416 72.5603 163.949 71.5109 163.949 69.412C163.949 68.3144 163.822 67.4816 163.568 66.9136C163.312 66.3359 162.896 66.0471 162.32 66.0471C161.224 66.0471 160.676 67.0965 160.676 69.1953C160.676 70.293 160.808 71.1305 161.073 71.7082C161.347 72.2763 161.772 72.5603 162.348 72.5603Z" fill="#727272"/>
<path d="M167.793 66.6857L166.886 66.4257V65.4293L169.239 65.126H169.281L169.636 65.4148V65.9781L169.622 66.3247C169.952 66.007 170.382 65.7325 170.911 65.5015C171.44 65.2704 171.974 65.1549 172.512 65.1549C173.089 65.1549 173.537 65.2656 173.859 65.487C174.19 65.6989 174.426 66.0358 174.568 66.4979C174.709 66.9601 174.78 67.5859 174.78 68.3753V72.3613L175.645 72.4769V73.3433H171.989V72.4769L172.753 72.3613V68.3753C172.753 67.8747 172.72 67.4847 172.654 67.2055C172.588 66.9168 172.465 66.7098 172.286 66.5845C172.116 66.4498 171.87 66.3824 171.549 66.3824C171.01 66.3824 170.434 66.6183 169.82 67.09V72.3468L170.67 72.4769V73.3433H166.971V72.4769L167.793 72.3468V66.6857Z" fill="#727272"/>
<path d="M176.218 69.3398C176.218 68.4348 176.393 67.6645 176.742 67.0291C177.101 66.3937 177.579 65.9171 178.174 65.5994C178.769 65.2721 179.417 65.1084 180.116 65.1084C181.306 65.1084 182.223 65.4838 182.865 66.2348C183.516 66.9761 183.843 67.987 183.843 69.2675C183.843 70.1822 183.664 70.9621 183.304 71.6071C182.955 72.2426 182.482 72.7192 181.887 73.0369C181.301 73.345 180.654 73.499 179.946 73.499C178.764 73.499 177.848 73.1283 177.196 72.3869C176.544 71.636 176.218 70.6203 176.218 69.3398ZM180.059 72.5603C181.127 72.5603 181.66 71.5109 181.66 69.412C181.66 68.3144 181.532 67.4816 181.277 66.9136C181.022 66.3359 180.606 66.0471 180.031 66.0471C178.934 66.0471 178.387 67.0965 178.387 69.1953C178.387 70.293 178.519 71.1305 178.783 71.7082C179.058 72.2763 179.482 72.5603 180.059 72.5603Z" fill="#727272"/>
<path d="M184.705 72.4769L185.498 72.3468V66.6857L184.592 66.4257V65.4293L186.945 65.126L187.115 65.2415L187.326 65.7181V66.3247C187.638 66.0166 188.082 65.747 188.659 65.5159C189.245 65.2752 189.75 65.1549 190.175 65.1549C190.686 65.1549 191.097 65.2415 191.409 65.4148C191.73 65.5881 191.971 65.8577 192.131 66.2235C192.443 65.9347 192.854 65.6844 193.364 65.4726C193.875 65.2607 194.376 65.1549 194.866 65.1549C195.707 65.1549 196.303 65.4052 196.652 65.9058C197.002 66.4065 197.176 67.2249 197.176 68.3609V72.3468L198.098 72.4769V73.3433H194.427V72.4769L195.164 72.3468V68.4186C195.164 67.6677 195.075 67.143 194.895 66.8445C194.725 66.5364 194.394 66.3824 193.903 66.3824C193.638 66.3824 193.365 66.445 193.081 66.5701C192.807 66.6857 192.562 66.8301 192.344 67.0034C192.41 67.3692 192.443 67.8265 192.443 68.3753V72.3468L193.322 72.4769V73.3433H189.622V72.4769L190.402 72.3468V68.3753C190.402 67.8747 190.369 67.4847 190.303 67.2055C190.246 66.9168 190.133 66.7098 189.963 66.5845C189.792 66.4498 189.547 66.3824 189.226 66.3824C188.923 66.3824 188.621 66.4546 188.319 66.5991C188.026 66.7338 187.762 66.8974 187.525 67.09V72.3468L188.361 72.4769V73.3433H184.705V72.4769Z" fill="#727272"/>
<path d="M200.317 63.9975C199.977 63.9975 199.707 63.8964 199.509 63.6942C199.31 63.492 199.211 63.2321 199.211 62.9144C199.211 62.5485 199.324 62.2452 199.551 62.0046C199.778 61.7639 200.08 61.6436 200.459 61.6436C200.836 61.6436 201.125 61.7494 201.323 61.9613C201.521 62.1634 201.62 62.4185 201.62 62.7266C201.62 63.1117 201.507 63.4198 201.28 63.6509C201.054 63.882 200.737 63.9975 200.331 63.9975H200.317ZM199.565 66.6837L198.56 66.4093V65.4417L201.152 65.124H201.181L201.578 65.4128V72.3593L202.528 72.4749V73.3413H198.574V72.4749L199.565 72.3448V66.6837Z" fill="#727272"/>
<path d="M202.935 69.3687C202.935 68.5407 203.095 67.8042 203.416 67.1591C203.747 66.5141 204.214 66.0134 204.819 65.6572C205.433 65.2912 206.147 65.1084 206.959 65.1084C207.337 65.1084 207.663 65.1372 207.936 65.195C208.211 65.2527 208.518 65.3298 208.858 65.4261L209.269 65.5416L209.184 68.0111H207.951L207.597 66.4225C207.541 66.1722 207.261 66.0471 206.761 66.0471C206.232 66.0471 205.816 66.283 205.513 66.7547C205.221 67.2265 205.069 67.963 205.06 68.9643C205.06 70.0234 205.239 70.837 205.598 71.4049C205.958 71.9633 206.435 72.2426 207.03 72.2426C207.748 72.2426 208.41 72.0452 209.014 71.6504L209.34 72.4015C209.095 72.671 208.716 72.9213 208.206 73.1524C207.705 73.3835 207.162 73.499 206.576 73.499C205.367 73.499 204.455 73.1187 203.841 72.3581C203.237 71.5975 202.935 70.6011 202.935 69.3687Z" fill="#727272"/>
<path d="M216.337 63.5645L214.311 63.6368L213.758 66.7851H212.568L212.808 62.6113H221.949L222.119 66.7851H221L220.447 63.6368L218.449 63.5645V72.3307L220.433 72.4751V73.3416H214.523V72.4751L216.337 72.3307V63.5645Z" fill="#727272"/>
<path d="M224.328 63.9985C223.988 63.9985 223.72 63.8974 223.521 63.6952C223.323 63.493 223.223 63.233 223.223 62.9153C223.223 62.5495 223.337 62.2462 223.564 62.0055C223.791 61.7649 224.093 61.6445 224.47 61.6445C224.848 61.6445 225.136 61.7504 225.335 61.9622C225.533 62.1644 225.633 62.4195 225.633 62.7276C225.633 63.1127 225.519 63.4208 225.292 63.6519C225.066 63.8829 224.749 63.9985 224.342 63.9985H224.328ZM223.578 66.6847L222.571 66.4103V65.4427L225.165 65.125H225.193L225.59 65.4137V72.3603L226.539 72.4758V73.3423H222.585V72.4758L223.578 72.3458V66.6847Z" fill="#727272"/>
<path d="M227.13 72.4778L227.924 72.3478V66.6867L227.016 66.4267V65.4303L229.369 65.127L229.539 65.2425L229.752 65.719V66.3256C230.064 66.0175 230.507 65.748 231.083 65.5169C231.669 65.2762 232.175 65.1559 232.6 65.1559C233.11 65.1559 233.521 65.2425 233.833 65.4157C234.155 65.5891 234.395 65.8587 234.556 66.2245C234.868 65.9357 235.278 65.6853 235.789 65.4736C236.299 65.2617 236.8 65.1559 237.292 65.1559C238.132 65.1559 238.727 65.4061 239.077 65.9068C239.426 66.4075 239.602 67.2258 239.602 68.3619V72.3478L240.522 72.4778V73.3443H236.852V72.4778L237.588 72.3478V68.4196C237.588 67.6687 237.499 67.144 237.32 66.8455C237.15 66.5374 236.818 66.3834 236.327 66.3834C236.062 66.3834 235.789 66.446 235.505 66.5711C235.231 66.6867 234.986 66.8311 234.769 67.0044C234.834 67.3702 234.868 67.8275 234.868 68.3763V72.3478L235.746 72.4778V73.3443H232.047V72.4778L232.827 72.3478V68.3763C232.827 67.8756 232.794 67.4857 232.728 67.2065C232.671 66.9177 232.558 66.7108 232.388 66.5855C232.218 66.4508 231.972 66.3834 231.65 66.3834C231.348 66.3834 231.046 66.4556 230.743 66.6C230.451 66.7348 230.186 66.8984 229.95 67.091V72.3478L230.786 72.4778V73.3443H227.13V72.4778Z" fill="#727272"/>
<path d="M244.628 73.5C243.381 73.5 242.451 73.1293 241.837 72.3879C241.231 71.637 240.929 70.6165 240.929 69.3263C240.929 68.4599 241.085 67.7088 241.397 67.0734C241.718 66.438 242.167 65.9517 242.743 65.6148C243.32 65.2778 243.985 65.1094 244.741 65.1094C245.687 65.1094 246.414 65.3645 246.924 65.8747C247.434 66.3754 247.699 67.0926 247.718 68.0265C247.718 68.662 247.68 69.1338 247.604 69.4419H242.998C243.036 70.318 243.239 71.0016 243.608 71.4925C243.977 71.974 244.5 72.2147 245.181 72.2147C245.549 72.2147 245.928 72.152 246.315 72.0269C246.712 71.9018 247.023 71.7525 247.25 71.5793L247.604 72.3735C247.349 72.6527 246.934 72.9127 246.358 73.1534C245.79 73.3844 245.215 73.5 244.628 73.5ZM245.734 68.5754C245.752 68.3058 245.762 68.0987 245.762 67.9544C245.762 66.6739 245.341 66.0336 244.5 66.0336C244.038 66.0336 243.679 66.2213 243.424 66.5969C243.168 66.9723 243.027 67.6318 242.998 68.5754H245.734Z" fill="#727272"/>
<path d="M250.002 72.1573C250.077 72.2729 250.247 72.3836 250.511 72.4895C250.786 72.5858 251.06 72.634 251.334 72.634C251.778 72.634 252.108 72.5425 252.326 72.3596C252.552 72.167 252.666 71.9167 252.666 71.6086C252.666 71.2909 252.529 71.0358 252.255 70.8432C251.981 70.6411 251.518 70.3955 250.866 70.1067L250.469 69.9333C249.818 69.6541 249.331 69.3172 249.01 68.9224C248.688 68.5277 248.527 68.0174 248.527 67.3916C248.527 66.9584 248.655 66.5732 248.91 66.2362C249.165 65.8897 249.524 65.6201 249.988 65.4276C250.45 65.235 250.984 65.1387 251.589 65.1387C252.033 65.1387 252.411 65.1676 252.722 65.2254C253.044 65.2831 253.379 65.3601 253.729 65.4564C253.918 65.5238 254.059 65.5623 254.154 65.5719V67.4638H253.034L252.708 66.3663C252.651 66.2699 252.524 66.1833 252.326 66.1063C252.128 66.0293 251.901 65.9907 251.646 65.9907C251.259 65.9907 250.947 66.0774 250.71 66.2507C250.483 66.4144 250.37 66.6455 250.37 66.944C250.37 67.2135 250.45 67.4397 250.611 67.6227C250.772 67.7959 250.947 67.9308 251.135 68.027C251.324 68.1233 251.674 68.2822 252.185 68.5037C252.694 68.725 253.115 68.9369 253.445 69.1391C253.786 69.3412 254.064 69.606 254.282 69.9333C254.509 70.2511 254.622 70.6411 254.622 71.1031C254.622 71.8156 254.347 72.3932 253.8 72.8362C253.252 73.279 252.463 73.5005 251.433 73.5005C250.951 73.5005 250.517 73.4572 250.13 73.3705C249.751 73.2838 249.312 73.1683 248.811 73.0239L248.499 72.9228V71.0165H249.676L250.002 72.1573Z" fill="#727272"/>
</svg>
